# xmcd
#
# Track frame offsets:
#	150
#	33460
#	60453
#	89054
#	120122
#	143226
#	178039
#	195637
#	224926
#
# Disc length: 3408 seconds
#
# Revision: 0
# Processed by: cddbd v1.5.2PL0 Copyright (c) Steve Scherf et al.
# Submitted via: dBpowerAMP V4.0
#
DISCID=860d4e09
DTITLE=Neville Brothers - 1994-12/? House Of Blues - 
DYEAR=1994
DGENRE=Blues
TTITLE0=Saturday Night Fish Fry - Love the One You're With
TTITLE1=Yellow Moon
TTITLE2=Lights
TTITLE3=Family Affair - Stay What You Are
TTITLE4=Something
TTITLE5=Brother John - Iko Iko - Jambalaya
TTITLE6=Fear, Hate, Envy, Jealousy
TTITLE7=Let My People Go
TTITLE8=Big Chief
EXTD=
EXTT0=
EXTT1=
EXTT2=
EXTT3=
EXTT4=
EXTT5=
EXTT6=
EXTT7=
EXTT8=
PLAYORDER=
